<mxfile host="app.diagrams.net" modified="2021-09-09T03:04:57.333Z" agent="5.0 (Macintosh; Intel Mac OS X 10_15_7) AppleWebKit/537.36 (KHTML, like Gecko) Chrome/93.0.4577.63 Safari/537.36" etag="BC7wgIXTVugP3H-sMx6G" version="15.1.1" type="github">
  <diagram name="Page-1" id="e7e014a7-5840-1c2e-5031-d8a46d1fe8dd">
    <mxGraphModel dx="946" dy="532" grid="1" gridSize="10" guides="1" tooltips="1" connect="1" arrows="1" fold="1" page="1" pageScale="1" pageWidth="1169" pageHeight="826" background="none" math="0" shadow="0">
      <root>
        <mxCell id="0" />
        <mxCell id="1" parent="0" />
        <mxCell id="UzPeg6kkZ6eYkgYElsji-41" value="" style="shape=internalStorage;whiteSpace=wrap;html=1;backgroundOutline=1;dx=36;dy=40;" parent="1" vertex="1">
          <mxGeometry x="164.5" y="720" width="845.5" height="1240" as="geometry" />
        </mxCell>
        <mxCell id="UzPeg6kkZ6eYkgYElsji-42" value="&lt;b&gt;页面层&lt;/b&gt;" style="rounded=0;whiteSpace=wrap;html=1;" parent="1" vertex="1">
          <mxGeometry x="200" y="720" width="250" height="40" as="geometry" />
        </mxCell>
        <mxCell id="UzPeg6kkZ6eYkgYElsji-43" value="" style="endArrow=none;html=1;entryX=1;entryY=1;entryDx=0;entryDy=0;exitX=0.342;exitY=1.002;exitDx=0;exitDy=0;exitPerimeter=0;" parent="1" source="UzPeg6kkZ6eYkgYElsji-41" target="UzPeg6kkZ6eYkgYElsji-42" edge="1">
          <mxGeometry width="50" height="50" relative="1" as="geometry">
            <mxPoint x="450" y="1434" as="sourcePoint" />
            <mxPoint x="470" y="850" as="targetPoint" />
          </mxGeometry>
        </mxCell>
        <mxCell id="UzPeg6kkZ6eYkgYElsji-44" value="&lt;b&gt;签&lt;br&gt;字&lt;/b&gt;" style="rounded=0;whiteSpace=wrap;html=1;" parent="1" vertex="1">
          <mxGeometry x="165" y="760" width="35" height="250" as="geometry" />
        </mxCell>
        <mxCell id="UzPeg6kkZ6eYkgYElsji-45" value="src/views/form/writeBoard.vue" style="rounded=0;whiteSpace=wrap;html=1;" parent="1" vertex="1">
          <mxGeometry x="230" y="810" width="180" height="60" as="geometry" />
        </mxCell>
        <mxCell id="UzPeg6kkZ6eYkgYElsji-46" value="&lt;b&gt;业务组件&lt;/b&gt;" style="rounded=0;whiteSpace=wrap;html=1;" parent="1" vertex="1">
          <mxGeometry x="450" y="720" width="280" height="40" as="geometry" />
        </mxCell>
        <mxCell id="UzPeg6kkZ6eYkgYElsji-47" value="src/components/biz/form/&lt;br&gt;writeBoardInteractiveGUI.vue&lt;br&gt;&lt;br&gt;签字区域布局&lt;br&gt;签字完成展示布局&lt;br&gt;交互事件" style="rounded=0;whiteSpace=wrap;html=1;" parent="1" vertex="1">
          <mxGeometry x="480" y="790" width="230" height="120" as="geometry" />
        </mxCell>
        <mxCell id="UzPeg6kkZ6eYkgYElsji-48" value="&lt;span style=&quot;font-weight: 700&quot;&gt;通用组件/原子组件&lt;/span&gt;" style="rounded=0;whiteSpace=wrap;html=1;" parent="1" vertex="1">
          <mxGeometry x="730" y="720" width="280" height="40" as="geometry" />
        </mxCell>
        <mxCell id="UzPeg6kkZ6eYkgYElsji-49" value="" style="endArrow=none;html=1;entryX=1;entryY=1;entryDx=0;entryDy=0;exitX=0.67;exitY=1;exitDx=0;exitDy=0;exitPerimeter=0;" parent="1" source="UzPeg6kkZ6eYkgYElsji-41" target="UzPeg6kkZ6eYkgYElsji-46" edge="1">
          <mxGeometry width="50" height="50" relative="1" as="geometry">
            <mxPoint x="730" y="1434" as="sourcePoint" />
            <mxPoint x="790" y="790" as="targetPoint" />
          </mxGeometry>
        </mxCell>
        <mxCell id="UzPeg6kkZ6eYkgYElsji-50" value="依赖库signature_pad&lt;br&gt;&lt;br&gt;src/components/common/&lt;br&gt;writeBoard/tablet.vue&lt;br&gt;&lt;br&gt;核心绘制区域&lt;br&gt;绘制交互方式" style="rounded=0;whiteSpace=wrap;html=1;" parent="1" vertex="1">
          <mxGeometry x="790" y="790" width="160" height="120" as="geometry" />
        </mxCell>
        <mxCell id="UzPeg6kkZ6eYkgYElsji-51" value="依赖cordova API文件&lt;br&gt;&lt;br&gt;src/views/form/uploadVideo.vue&lt;br&gt;&lt;br&gt;视频拍摄/上传页&lt;br&gt;拍摄/上传区域&lt;br&gt;缩略图&lt;br&gt;播放" style="rounded=0;whiteSpace=wrap;html=1;" parent="1" vertex="1">
          <mxGeometry x="222.25" y="1050" width="195.5" height="130" as="geometry" />
        </mxCell>
        <mxCell id="UzPeg6kkZ6eYkgYElsji-52" value="src/components/common/&lt;br&gt;loading/index.vue&lt;br&gt;&lt;br&gt;loading遮罩" style="rounded=0;whiteSpace=wrap;html=1;" parent="1" vertex="1">
          <mxGeometry x="790" y="1080" width="170" height="80" as="geometry" />
        </mxCell>
        <mxCell id="UzPeg6kkZ6eYkgYElsji-53" value="&lt;b&gt;照&lt;br&gt;片&lt;br&gt;/&lt;br&gt;录&lt;br&gt;像&lt;/b&gt;" style="rounded=0;whiteSpace=wrap;html=1;" parent="1" vertex="1">
          <mxGeometry x="164.5" y="1010" width="35.5" height="410" as="geometry" />
        </mxCell>
        <mxCell id="UzPeg6kkZ6eYkgYElsji-61" style="edgeStyle=orthogonalEdgeStyle;rounded=0;orthogonalLoop=1;jettySize=auto;html=1;exitX=1;exitY=0.5;exitDx=0;exitDy=0;entryX=0;entryY=0.5;entryDx=0;entryDy=0;strokeColor=#FF3333;" parent="1" source="UzPeg6kkZ6eYkgYElsji-54" target="UzPeg6kkZ6eYkgYElsji-55" edge="1">
          <mxGeometry relative="1" as="geometry" />
        </mxCell>
        <mxCell id="UzPeg6kkZ6eYkgYElsji-54" value="src/views/form/uploadImages.vue&lt;br&gt;&lt;br&gt;添加区域&lt;br&gt;缩略图&lt;br&gt;删除功能&lt;br&gt;查看大图" style="rounded=0;whiteSpace=wrap;html=1;" parent="1" vertex="1">
          <mxGeometry x="222.25" y="1220" width="197.75" height="110" as="geometry" />
        </mxCell>
        <mxCell id="UzPeg6kkZ6eYkgYElsji-62" style="edgeStyle=orthogonalEdgeStyle;rounded=0;orthogonalLoop=1;jettySize=auto;html=1;entryX=0;entryY=0.5;entryDx=0;entryDy=0;strokeColor=#FF3333;" parent="1" source="UzPeg6kkZ6eYkgYElsji-55" target="UzPeg6kkZ6eYkgYElsji-56" edge="1">
          <mxGeometry relative="1" as="geometry" />
        </mxCell>
        <mxCell id="UzPeg6kkZ6eYkgYElsji-55" value="依赖cordova库文件&lt;br&gt;&lt;br&gt;src/components/common/native/&lt;br&gt;imagePicker/index.vue&lt;br&gt;&lt;br&gt;拍照、相册、上传" style="rounded=0;whiteSpace=wrap;html=1;" parent="1" vertex="1">
          <mxGeometry x="495" y="1225" width="190" height="100" as="geometry" />
        </mxCell>
        <mxCell id="UzPeg6kkZ6eYkgYElsji-56" value="src/components/common/&lt;br&gt;loading/index.vue&lt;br&gt;&lt;br&gt;loading遮罩" style="rounded=0;whiteSpace=wrap;html=1;" parent="1" vertex="1">
          <mxGeometry x="790" y="1235" width="170" height="80" as="geometry" />
        </mxCell>
        <mxCell id="UzPeg6kkZ6eYkgYElsji-57" value="" style="endArrow=none;html=1;exitX=1;exitY=0;exitDx=0;exitDy=0;" parent="1" source="UzPeg6kkZ6eYkgYElsji-53" edge="1">
          <mxGeometry width="50" height="50" relative="1" as="geometry">
            <mxPoint x="280" y="1040" as="sourcePoint" />
            <mxPoint x="1020" y="1010" as="targetPoint" />
          </mxGeometry>
        </mxCell>
        <mxCell id="UzPeg6kkZ6eYkgYElsji-58" value="" style="endArrow=classic;html=1;exitX=1;exitY=0.5;exitDx=0;exitDy=0;entryX=0;entryY=0.417;entryDx=0;entryDy=0;entryPerimeter=0;strokeColor=#FF3333;" parent="1" source="UzPeg6kkZ6eYkgYElsji-45" target="UzPeg6kkZ6eYkgYElsji-47" edge="1">
          <mxGeometry width="50" height="50" relative="1" as="geometry">
            <mxPoint x="430" y="870" as="sourcePoint" />
            <mxPoint x="480" y="820" as="targetPoint" />
          </mxGeometry>
        </mxCell>
        <mxCell id="UzPeg6kkZ6eYkgYElsji-59" value="" style="endArrow=classic;html=1;exitX=1;exitY=0.5;exitDx=0;exitDy=0;entryX=-0.012;entryY=0.417;entryDx=0;entryDy=0;entryPerimeter=0;strokeColor=#FF3333;" parent="1" target="UzPeg6kkZ6eYkgYElsji-50" edge="1">
          <mxGeometry width="50" height="50" relative="1" as="geometry">
            <mxPoint x="710" y="839.5" as="sourcePoint" />
            <mxPoint x="780" y="839.54" as="targetPoint" />
          </mxGeometry>
        </mxCell>
        <mxCell id="UzPeg6kkZ6eYkgYElsji-60" value="" style="endArrow=classic;html=1;entryX=0;entryY=0.5;entryDx=0;entryDy=0;strokeColor=#FF3333;" parent="1" target="UzPeg6kkZ6eYkgYElsji-52" edge="1">
          <mxGeometry width="50" height="50" relative="1" as="geometry">
            <mxPoint x="420" y="1120" as="sourcePoint" />
            <mxPoint x="498.0799999999999" y="1115.04" as="targetPoint" />
          </mxGeometry>
        </mxCell>
        <mxCell id="UzPeg6kkZ6eYkgYElsji-63" value="" style="endArrow=none;html=1;exitX=1;exitY=1;exitDx=0;exitDy=0;entryX=0.999;entryY=0.562;entryDx=0;entryDy=0;entryPerimeter=0;" parent="1" source="UzPeg6kkZ6eYkgYElsji-53" target="UzPeg6kkZ6eYkgYElsji-41" edge="1">
          <mxGeometry width="50" height="50" relative="1" as="geometry">
            <mxPoint x="210" y="1440" as="sourcePoint" />
            <mxPoint x="260" y="1390" as="targetPoint" />
          </mxGeometry>
        </mxCell>
        <mxCell id="anbmn5TCei9rawwlm1tZ-44" style="edgeStyle=orthogonalEdgeStyle;rounded=0;orthogonalLoop=1;jettySize=auto;html=1;strokeColor=#FF3333;" edge="1" parent="1" source="anbmn5TCei9rawwlm1tZ-41" target="anbmn5TCei9rawwlm1tZ-42">
          <mxGeometry relative="1" as="geometry" />
        </mxCell>
        <mxCell id="anbmn5TCei9rawwlm1tZ-41" value="src/views/householdNumber/&lt;br&gt;uploadPhotoOfElectricMeter.vue&lt;br&gt;&lt;br&gt;扫描条形码&lt;br&gt;手动输入条形码" style="rounded=0;whiteSpace=wrap;html=1;" vertex="1" parent="1">
          <mxGeometry x="222.25" y="1480" width="187.75" height="90" as="geometry" />
        </mxCell>
        <mxCell id="anbmn5TCei9rawwlm1tZ-46" style="edgeStyle=orthogonalEdgeStyle;rounded=0;orthogonalLoop=1;jettySize=auto;html=1;entryX=0.5;entryY=0;entryDx=0;entryDy=0;strokeColor=#FF3333;" edge="1" parent="1" source="anbmn5TCei9rawwlm1tZ-42" target="anbmn5TCei9rawwlm1tZ-43">
          <mxGeometry relative="1" as="geometry" />
        </mxCell>
        <mxCell id="anbmn5TCei9rawwlm1tZ-42" value="src/components/biz/barcode/readonly.vue&lt;br&gt;&lt;br&gt;调系统相机扫描条形码&lt;br&gt;手动输入" style="rounded=0;whiteSpace=wrap;html=1;" vertex="1" parent="1">
          <mxGeometry x="475" y="1440" width="240" height="100" as="geometry" />
        </mxCell>
        <mxCell id="anbmn5TCei9rawwlm1tZ-43" value="src/components/biz/barcode/inputPop.vue&lt;br&gt;&lt;br&gt;条形码手动输入框" style="rounded=0;whiteSpace=wrap;html=1;" vertex="1" parent="1">
          <mxGeometry x="475" y="1590" width="240" height="90" as="geometry" />
        </mxCell>
        <mxCell id="anbmn5TCei9rawwlm1tZ-47" value="&lt;b&gt;项目&lt;/b&gt;" style="rounded=0;whiteSpace=wrap;html=1;" vertex="1" parent="1">
          <mxGeometry x="1010" y="720" width="60" height="40" as="geometry" />
        </mxCell>
        <mxCell id="anbmn5TCei9rawwlm1tZ-48" value="惠&lt;br&gt;农&lt;br&gt;宝" style="rounded=0;whiteSpace=wrap;html=1;" vertex="1" parent="1">
          <mxGeometry x="1010" y="760" width="60" height="657" as="geometry" />
        </mxCell>
        <mxCell id="anbmn5TCei9rawwlm1tZ-51" value="合&lt;br&gt;约&lt;br&gt;购" style="rounded=0;whiteSpace=wrap;html=1;" vertex="1" parent="1">
          <mxGeometry x="1010" y="1417" width="60" height="303" as="geometry" />
        </mxCell>
        <mxCell id="anbmn5TCei9rawwlm1tZ-52" value="&lt;b&gt;扫&lt;br&gt;描&lt;br&gt;条&lt;br&gt;形&lt;br&gt;码&lt;/b&gt;" style="rounded=0;whiteSpace=wrap;html=1;" vertex="1" parent="1">
          <mxGeometry x="165" y="1420" width="35" height="300" as="geometry" />
        </mxCell>
        <mxCell id="anbmn5TCei9rawwlm1tZ-53" value="" style="endArrow=none;html=1;exitX=1;exitY=1;exitDx=0;exitDy=0;" edge="1" parent="1" source="anbmn5TCei9rawwlm1tZ-52">
          <mxGeometry width="50" height="50" relative="1" as="geometry">
            <mxPoint x="210" y="1750" as="sourcePoint" />
            <mxPoint x="1008" y="1721" as="targetPoint" />
          </mxGeometry>
        </mxCell>
        <mxCell id="anbmn5TCei9rawwlm1tZ-54" value="&lt;b&gt;定&lt;br&gt;位&lt;/b&gt;" style="rounded=0;whiteSpace=wrap;html=1;" vertex="1" parent="1">
          <mxGeometry x="165" y="1720" width="35" height="240" as="geometry" />
        </mxCell>
        <mxCell id="anbmn5TCei9rawwlm1tZ-57" style="edgeStyle=orthogonalEdgeStyle;rounded=0;orthogonalLoop=1;jettySize=auto;html=1;entryX=-0.004;entryY=0.58;entryDx=0;entryDy=0;entryPerimeter=0;strokeColor=#FF3333;" edge="1" parent="1" source="anbmn5TCei9rawwlm1tZ-55" target="anbmn5TCei9rawwlm1tZ-56">
          <mxGeometry relative="1" as="geometry" />
        </mxCell>
        <mxCell id="anbmn5TCei9rawwlm1tZ-55" value="src/views/powerStation/editAddress3.vue&lt;br&gt;&lt;br&gt;地区定位&lt;br&gt;城市字母表" style="rounded=0;whiteSpace=wrap;html=1;" vertex="1" parent="1">
          <mxGeometry x="209.5" y="1780" width="235" height="80" as="geometry" />
        </mxCell>
        <mxCell id="anbmn5TCei9rawwlm1tZ-56" value="src/common/mapLocation.js&lt;br&gt;&lt;br&gt;SDK辅助定位&lt;br&gt;经纬度坐标定位" style="rounded=0;whiteSpace=wrap;html=1;" vertex="1" parent="1">
          <mxGeometry x="790" y="1780" width="175" height="70" as="geometry" />
        </mxCell>
        <mxCell id="anbmn5TCei9rawwlm1tZ-58" value="电&lt;br&gt;站&lt;br&gt;监&lt;br&gt;控&lt;br&gt;h5" style="rounded=0;whiteSpace=wrap;html=1;" vertex="1" parent="1">
          <mxGeometry x="1010" y="1720" width="60" height="240" as="geometry" />
        </mxCell>
      </root>
    </mxGraphModel>
  </diagram>
</mxfile>
